<?xml version="1.0" encoding="UTF-8"?>
<svg width="64px" height="20px" viewBox="0 0 64 20" version="1.1" xmlns="http://www.w3.org/2000/svg" xmlns:xlink="http://www.w3.org/1999/xlink">
    <!-- Generator: Sketch 40.3 (33839) - http://www.bohemiancoding.com/sketch -->
    <title>vibes</title>
    <desc>Created with Sketch.</desc>
    <defs></defs>
    <g id="Page-1" stroke="none" stroke-width="1" fill="none" fill-rule="evenodd">
        <path d="M0.68,7.336 L4.568,7.336 L6.392,15.256 L6.44,15.256 L10.304,7.336 L13.928,7.336 L7.688,19 L3.872,19 L0.68,7.336 Z M17.796,7.336 L21.396,7.336 L19.764,19 L16.164,19 L17.796,7.336 Z M18.012,3.664 C18.0600002,3.37599856 18.1559993,3.10400128 18.3,2.848 C18.4440007,2.59199872 18.6239989,2.37200092 18.84,2.188 C19.0560011,2.00399908 19.2999986,1.85600056 19.572,1.744 C19.8440014,1.63199944 20.1239986,1.576 20.412,1.576 C20.9880029,1.576 21.4479983,1.77999796 21.792,2.188 C22.1360017,2.59600204 22.2680004,3.08799712 22.188,3.664 C22.1559998,3.95200144 22.0680007,4.22399872 21.924,4.48 C21.7799993,4.73600128 21.6000011,4.95599908 21.384,5.14 C21.1679989,5.32400092 20.9240014,5.47199944 20.652,5.584 C20.3799986,5.69600056 20.1000014,5.752 19.812,5.752 C19.5239986,5.752 19.2600012,5.69600056 19.02,5.584 C18.7799988,5.47199944 18.5800008,5.32400092 18.42,5.14 C18.2599992,4.95599908 18.1440004,4.73600128 18.072,4.48 C17.9999996,4.22399872 17.9799998,3.95200144 18.012,3.664 L18.012,3.664 Z M26.736,0.856 L30.336,0.856 L29.232,8.584 L29.28,8.584 C29.7760025,8.0239972 30.3639966,7.62800116 31.044,7.396 C31.7240034,7.16399884 32.4399962,7.048 33.192,7.048 C34.0240042,7.048 34.743997,7.21999828 35.352,7.564 C35.960003,7.90800172 36.4559981,8.36799712 36.84,8.944 C37.2240019,9.52000288 37.4839993,10.1799963 37.62,10.924 C37.7560007,11.6680037 37.7680006,12.4479959 37.656,13.264 C37.5279994,14.1440044 37.2760019,14.9519963 36.9,15.688 C36.5239981,16.4240037 36.0480029,17.0599973 35.472,17.596 C34.8959971,18.1320027 34.2360037,18.5479985 33.492,18.844 C32.7479963,19.1400015 31.9440043,19.288 31.08,19.288 C30.6639979,19.288 30.2800018,19.2320006 29.928,19.12 C29.5759982,19.0079994 29.2560014,18.8640009 28.968,18.688 C28.6799986,18.5119991 28.432001,18.3160011 28.224,18.1 C28.015999,17.8839989 27.8560006,17.672001 27.744,17.464 L27.696,17.464 L27.504,19 L24.192,19 L26.736,0.856 Z M28.32,13.168 C28.1919994,14.0480044 28.3399979,14.7599973 28.764,15.304 C29.1880021,15.8480027 29.8559954,16.12 30.768,16.12 C31.6800046,16.12 32.4279971,15.8480027 33.012,15.304 C33.5960029,14.7599973 33.9519994,14.0480044 34.08,13.168 C34.2080006,12.2879956 34.0560022,11.5760027 33.624,11.032 C33.1919978,10.4879973 32.5200046,10.216 31.608,10.216 C30.6959954,10.216 29.9520029,10.4879973 29.376,11.032 C28.7999971,11.5760027 28.4480006,12.2879956 28.32,13.168 L28.32,13.168 Z M50.78,16.984 C50.1079966,17.7200037 49.3040047,18.287998 48.368,18.688 C47.4319953,19.088002 46.4920047,19.288 45.548,19.288 C44.6519955,19.288 43.8280038,19.1440014 43.076,18.856 C42.3239962,18.5679986 41.6960025,18.1560027 41.192,17.62 C40.6879975,17.0839973 40.3200012,16.4400038 40.088,15.688 C39.8559988,14.9359962 39.8039994,14.0960046 39.932,13.168 C40.0600006,12.2399954 40.3439978,11.4000038 40.784,10.648 C41.2240022,9.89599624 41.7719967,9.25200268 42.428,8.716 C43.0840033,8.17999732 43.8279958,7.76800144 44.66,7.48 C45.4920042,7.19199856 46.3559955,7.048 47.252,7.048 C48.0840042,7.048 48.8199968,7.19199856 49.46,7.48 C50.1000032,7.76800144 50.619998,8.17999732 51.02,8.716 C51.420002,9.25200268 51.6959992,9.89599624 51.848,10.648 C52.0000008,11.4000038 52.0120006,12.2399954 51.884,13.168 L51.716,14.296 L43.364,14.296 C43.4120002,14.9840034 43.6479979,15.531998 44.072,15.94 C44.4960021,16.348002 45.0599965,16.552 45.764,16.552 C46.356003,16.552 46.8719978,16.4200013 47.312,16.156 C47.7520022,15.8919987 48.1559982,15.5520021 48.524,15.136 L50.78,16.984 Z M48.452,11.848 C48.5480005,11.239997 48.4200018,10.7200022 48.068,10.288 C47.7159982,9.85599784 47.2120033,9.64 46.556,9.64 C46.155998,9.64 45.7960016,9.70399936 45.476,9.832 C45.1559984,9.96000064 44.8760012,10.123999 44.636,10.324 C44.3959988,10.524001 44.1960008,10.7559987 44.036,11.02 C43.8759992,11.2840013 43.7640003,11.5599986 43.7,11.848 L48.452,11.848 Z M61.504,10.768 C61.0719978,10.1119967 60.4160044,9.784 59.536,9.784 C59.2319985,9.784 58.9280015,9.85599928 58.624,10 C58.3199985,10.1440007 58.1440002,10.3919982 58.096,10.744 C58.0479998,11.0320014 58.1679986,11.2439993 58.456,11.38 C58.7440014,11.5160007 59.1039978,11.6359995 59.536,11.74 C59.9680022,11.8440005 60.4359975,11.9559994 60.94,12.076 C61.4440025,12.1960006 61.9039979,12.3839987 62.32,12.64 C62.7360021,12.8960013 63.0599988,13.2439978 63.292,13.684 C63.5240012,14.1240022 63.5920005,14.7119963 63.496,15.448 C63.3999995,16.2000038 63.152002,16.8199976 62.752,17.308 C62.351998,17.7960024 61.8760028,18.1879985 61.324,18.484 C60.7719972,18.7800015 60.1680033,18.9879994 59.512,19.108 C58.8559967,19.2280006 58.2160031,19.288 57.592,19.288 C56.7759959,19.288 55.968004,19.1720012 55.168,18.94 C54.367996,18.7079988 53.7200025,18.296003 53.224,17.704 L55.744,15.28 C56.0320014,15.6960021 56.3639981,16.0119989 56.74,16.228 C57.1160019,16.4440011 57.5759973,16.552 58.12,16.552 C58.5360021,16.552 58.9199982,16.4920006 59.272,16.372 C59.6240018,16.2519994 59.8239998,16.0320016 59.872,15.712 C59.9200002,15.4079985 59.8040014,15.1800008 59.524,15.028 C59.2439986,14.8759992 58.8840022,14.7480005 58.444,14.644 C58.0039978,14.5399995 57.5320025,14.4280006 57.028,14.308 C56.5239975,14.1879994 56.0600021,14.0080012 55.636,13.768 C55.2119979,13.5279988 54.8800012,13.1880022 54.64,12.748 C54.3999988,12.3079978 54.3359994,11.7200037 54.448,10.984 C54.5440005,10.2959966 54.7679982,9.70400248 55.12,9.208 C55.4720018,8.71199752 55.8999975,8.3040016 56.404,7.984 C56.9080025,7.6639984 57.463997,7.42800076 58.072,7.276 C58.680003,7.12399924 59.287997,7.048 59.896,7.048 C60.6640038,7.048 61.4239962,7.15999888 62.176,7.384 C62.9280038,7.60800112 63.5359977,8.00799712 64,8.584 L61.504,10.768 Z" id="vibes" fill="#FF0017"></path>
    </g>
</svg>